<svg xmlns="http://www.w3.org/2000/svg" xmlns:xlink="http://www.w3.org/1999/xlink" viewBox="0 0 360 44">
  <defs>
    <style>
      .cls-1 {
        fill: none;
      }

      .cls-2 {
        fill: #2c4a83;
      }

      .cls-3 {
        fill: #fce67a;
      }
    </style>
    <radialGradient id="radial-gradient" cx="180" cy="22" r="128.06" gradientTransform="translate(0 -2.2) scale(1 1.1)" gradientUnits="userSpaceOnUse">
      <stop offset="0" stop-color="#fed23f"/>
      <stop offset="1" stop-color="#fbe958"/>
    </radialGradient>
  </defs>
  <g id="Layer_2" data-name="Layer 2">
    <rect class="cls-1" width="360" height="44"/>
    <rect class="cls-2" x="160.48" y="11.02" width="51.33" height="23.6" rx="6.22"/>
    <g>
      <path class="cls-2" d="M16.32,23.83a1.35,1.35,0,0,1-.38,1.08,1.52,1.52,0,0,1-1,.31,1.49,1.49,0,0,1-1-.31,1.35,1.35,0,0,1-.38-1.08,1.21,1.21,0,0,1,.38-1,1.54,1.54,0,0,1,1-.29,1.58,1.58,0,0,1,1,.29A1.21,1.21,0,0,1,16.32,23.83Z"/>
      <path class="cls-2" d="M20.46,22.36a.5.5,0,0,0,0-.14l-.12-.32-1.15-3,2.38-1.08,1.71,4.47a.31.31,0,0,0,.31.22H24a.33.33,0,0,1,.15,0,.33.33,0,0,1,.1.17,2.2,2.2,0,0,1,.05.39c0,.17,0,.42,0,.72s0,.59,0,.77a2.66,2.66,0,0,1-.05.42c0,.1-.06.15-.1.17a.33.33,0,0,1-.15,0h-.68a4,4,0,0,1-.69-.08,1.46,1.46,0,0,1-.7-.38,2,2,0,0,1-.64.38,2.06,2.06,0,0,1-.52.08H17.23L17,22.52h3.28C20.4,22.52,20.46,22.47,20.46,22.36Z"/>
      <path class="cls-2" d="M24.53,22.52a.24.24,0,0,0,.17-.06.21.21,0,0,0,.07-.16V20.21h2.55V22.3a.2.2,0,0,0,.22.22h.54a.32.32,0,0,1,.14,0,.27.27,0,0,1,.1.17,2.2,2.2,0,0,1,.05.39c0,.17,0,.42,0,.72s0,.59,0,.77a2.66,2.66,0,0,1-.05.42.23.23,0,0,1-.1.17.32.32,0,0,1-.14,0h-.44a4.6,4.6,0,0,1-.87-.08,1.46,1.46,0,0,1-.7-.38,1.73,1.73,0,0,1-.68.38,2.85,2.85,0,0,1-.62.08H24a.4.4,0,0,1-.15,0s-.07-.07-.09-.16a1.71,1.71,0,0,1-.05-.4c0-.17,0-.42,0-.73s0-.58,0-.76a1.83,1.83,0,0,1,.05-.42.27.27,0,0,1,.09-.17.4.4,0,0,1,.15,0ZM28,27.91H24V26h4Z"/>
      <path class="cls-2" d="M28.61,22.52a.27.27,0,0,0,.17-.06.26.26,0,0,0,.07-.16V20.21h2.46V22.3a.21.21,0,0,0,.07.16.25.25,0,0,0,.17.06.24.24,0,0,0,.15-.06.21.21,0,0,0,.07-.16V20.21h2.47V22.3a.21.21,0,0,0,.07.16.23.23,0,0,0,.16.06.25.25,0,0,0,.16-.06.26.26,0,0,0,.07-.16V20.21h2.46v2.31a2.89,2.89,0,0,1-.22,1.2,2.38,2.38,0,0,1-.6.84,2.44,2.44,0,0,1-.87.5,3,3,0,0,1-1,.16,4.05,4.05,0,0,1-.7-.08,1.31,1.31,0,0,1-.68-.38,2,2,0,0,1-.68.38,2.34,2.34,0,0,1-.48.08h-.38a4,4,0,0,1-.7-.08,1.42,1.42,0,0,1-.7-.38,1.89,1.89,0,0,1-.66.38,2.52,2.52,0,0,1-.49.08h-.92a.33.33,0,0,1-.15,0,.22.22,0,0,1-.1-.16,2.5,2.5,0,0,1,0-.4c0-.17,0-.42,0-.73s0-.58,0-.76a2.66,2.66,0,0,1,0-.42.27.27,0,0,1,.1-.17.33.33,0,0,1,.15,0Zm6.24-3.08h-4V17.52h4Zm-1-2.31h-2V15.21h2Z"/>
      <path class="cls-2" d="M41.31,22.52a.32.32,0,0,1,.14,0,.27.27,0,0,1,.1.17,2.2,2.2,0,0,1,.05.39c0,.17,0,.42,0,.72s0,.59,0,.77a2.66,2.66,0,0,1-.05.42.23.23,0,0,1-.1.17.32.32,0,0,1-.14,0h-.69A3,3,0,0,1,39.39,25a2,2,0,0,1-.8-.58,2.15,2.15,0,0,1-.45-.86,4,4,0,0,1-.14-1V16.68h2.55V22.3a.2.2,0,0,0,.22.22Z"/>
      <path class="cls-2" d="M42.16,22.52a.2.2,0,0,0,.15-.06.21.21,0,0,0,.07-.16V20.21h2.54v2.31a3.41,3.41,0,0,1-.19,1.17,2.24,2.24,0,0,1-.53.84,2.17,2.17,0,0,1-.8.52,3,3,0,0,1-1,.17H41.31a.33.33,0,0,1-.15,0,.22.22,0,0,1-.1-.16,2.5,2.5,0,0,1-.05-.4c0-.17,0-.42,0-.73s0-.58,0-.76a2.66,2.66,0,0,1,.05-.42.27.27,0,0,1,.1-.17.33.33,0,0,1,.15,0Zm2.31,5.39H41.92V26h2.55Z"/>
      <path class="cls-2" d="M56.47,25.22a7.08,7.08,0,0,1-1-.07,2,2,0,0,1-.89-.35,2.53,2.53,0,0,1-.8.32,3.77,3.77,0,0,1-.88.1,3.23,3.23,0,0,1-1.06-.16,2.35,2.35,0,0,1-.83-.48,1.92,1.92,0,0,1-.54-.79,3,3,0,0,1-.19-1.12V22a.85.85,0,0,1,0-.17H50a.24.24,0,0,0-.16.07.21.21,0,0,0-.07.16v6.09H47.24V22.21a4,4,0,0,1,.16-1.1,2.51,2.51,0,0,1,.52-.93,2.55,2.55,0,0,1,.91-.65,3.34,3.34,0,0,1,1.34-.25h2.92a3.26,3.26,0,0,1,1.25.21,1.89,1.89,0,0,1,.8.56,1.94,1.94,0,0,1,.43.83,3.75,3.75,0,0,1,.13,1v.4a.21.21,0,0,0,.07.16.24.24,0,0,0,.17.06h.53a.32.32,0,0,1,.14,0,.28.28,0,0,1,.11.17,1.44,1.44,0,0,1,.06.39c0,.17,0,.42,0,.72s0,.59,0,.77a1.72,1.72,0,0,1-.06.42c0,.1-.06.15-.11.17A.32.32,0,0,1,56.47,25.22Zm-3.53-2.46a.6.6,0,0,0,.27-.07.28.28,0,0,0,.11-.24v-.39a.25.25,0,0,0-.12-.24.48.48,0,0,0-.26-.07.5.5,0,0,0-.27.07.25.25,0,0,0-.12.24v.39a.26.26,0,0,0,.12.24A.6.6,0,0,0,52.94,22.76Z"/>
      <path class="cls-2" d="M57,22.52a.27.27,0,0,0,.17-.06.26.26,0,0,0,.07-.16V20.21h2.55V22.3a.2.2,0,0,0,.22.22h.53a.33.33,0,0,1,.15,0,.33.33,0,0,1,.1.17,2.2,2.2,0,0,1,.05.39c0,.17,0,.42,0,.72s0,.59,0,.77a2.66,2.66,0,0,1-.05.42c0,.1-.06.15-.1.17a.33.33,0,0,1-.15,0h-.43a4.79,4.79,0,0,1-.88-.08,1.43,1.43,0,0,1-.69-.38,1.8,1.8,0,0,1-.68.38,3,3,0,0,1-.62.08h-.77a.33.33,0,0,1-.15,0s-.07-.07-.1-.16a2.5,2.5,0,0,1,0-.4c0-.17,0-.42,0-.73s0-.58,0-.76a2.66,2.66,0,0,1,0-.42.33.33,0,0,1,.1-.17.33.33,0,0,1,.15,0Zm3.47,5.39h-4V26h4Z"/>
      <path class="cls-2" d="M61.31,22.52v-.31a4.73,4.73,0,0,1,.12-1,2.74,2.74,0,0,1,.43-1,2.5,2.5,0,0,1,.85-.76,2.78,2.78,0,0,1,1.37-.3,3,3,0,0,1,1.12.2,2.28,2.28,0,0,1,1.33,1.43,3.38,3.38,0,0,1,.17,1.07,3.61,3.61,0,0,1,0,.44,5,5,0,0,1-.12.49,3.19,3.19,0,0,1,1.38-.24.26.26,0,0,1,.14,0,.33.33,0,0,1,.1.17,1.44,1.44,0,0,1,.06.39c0,.17,0,.42,0,.72s0,.59,0,.77a1.72,1.72,0,0,1-.06.42c0,.1-.06.15-.1.17a.26.26,0,0,1-.14,0l-.24,0a.94.94,0,0,0-.3.13,2.12,2.12,0,0,0-.39.34,7.31,7.31,0,0,0-.52.67l-1.32,1.85H63.78a2.78,2.78,0,0,1-1-.16,2.11,2.11,0,0,1-.78-.49,2.28,2.28,0,0,1-.53-.83,3.28,3.28,0,0,1-.19-1.18v-.35h-.77a.4.4,0,0,1-.15,0s-.07-.07-.09-.16a1.71,1.71,0,0,1,0-.4c0-.17,0-.42,0-.73s0-.58,0-.76a1.83,1.83,0,0,1,0-.42.27.27,0,0,1,.09-.17.4.4,0,0,1,.15,0Zm3.08-.46a.49.49,0,0,0-.1-.35.37.37,0,0,0-.28-.1c-.26,0-.39.17-.39.52v.47h.16a.63.63,0,0,0,.44-.15A.48.48,0,0,0,64.39,22.06Zm-.77,3.09a1.34,1.34,0,0,0,.08.52.31.31,0,0,0,.31.17l.56-.87a3.81,3.81,0,0,1-.45.13A2.65,2.65,0,0,1,63.62,25.15Z"/>
      <path class="cls-2" d="M68.47,22.52a.23.23,0,0,0,.16-.06.21.21,0,0,0,.07-.16V20.21h2.47V22.3a.21.21,0,0,0,.07.16.23.23,0,0,0,.16.06.25.25,0,0,0,.16-.06.21.21,0,0,0,.07-.16V20.21h2.46V22.3a.26.26,0,0,0,.07.16.27.27,0,0,0,.17.06.2.2,0,0,0,.15-.06.23.23,0,0,0,.08-.16V20.21H77v2.31a3.06,3.06,0,0,1-.22,1.2,2.46,2.46,0,0,1-1.47,1.34,3,3,0,0,1-1,.16,4.05,4.05,0,0,1-.7-.08,1.39,1.39,0,0,1-.69-.38,2,2,0,0,1-.67.38,2.41,2.41,0,0,1-.49.08H71.4a4,4,0,0,1-.69-.08,1.37,1.37,0,0,1-.7-.38,1.89,1.89,0,0,1-.66.38,2.52,2.52,0,0,1-.49.08h-.93a.32.32,0,0,1-.14,0c-.05,0-.08-.07-.1-.16a1.71,1.71,0,0,1,0-.4c0-.17,0-.42,0-.73s0-.58,0-.76a1.83,1.83,0,0,1,0-.42.24.24,0,0,1,.1-.17.32.32,0,0,1,.14,0Z"/>
      <path class="cls-2" d="M83,28.3A4.2,4.2,0,0,1,81.46,28a3.13,3.13,0,0,1-1.15-.76,3.27,3.27,0,0,1-.73-1.21,4.77,4.77,0,0,1-.25-1.61V21.52h2.53v3a1,1,0,0,0,.31.81,1.45,1.45,0,0,0,1,.28h.47a1.54,1.54,0,0,0,1.07-.3,1,1,0,0,0,.33-.79V16.68h2.53v7.69a4.45,4.45,0,0,1-.26,1.52,3.85,3.85,0,0,1-.77,1.26,3.37,3.37,0,0,1-1.21.84,3.92,3.92,0,0,1-1.61.31Z"/>
      <path class="cls-2" d="M91.79,22.52a.37.37,0,0,1,.15,0,.27.27,0,0,1,.09.17,1.54,1.54,0,0,1,0,.39c0,.17,0,.42,0,.72s0,.59,0,.77A1.83,1.83,0,0,1,92,25c0,.1,0,.15-.09.17a.37.37,0,0,1-.15,0H91.1A3,3,0,0,1,89.88,25a2.11,2.11,0,0,1-.81-.58,2.43,2.43,0,0,1-.45-.86,4,4,0,0,1-.14-1V16.68H91V22.3a.2.2,0,0,0,.23.22Z"/>
      <path class="cls-2" d="M92.64,22.52a.25.25,0,0,0,.16-.06.26.26,0,0,0,.07-.16V20.21H95.4v2.31a3.19,3.19,0,0,1-.19,1.17,2.22,2.22,0,0,1-.52.84,2.3,2.3,0,0,1-.81.52,3,3,0,0,1-1,.17H91.79a.33.33,0,0,1-.15,0s-.07-.07-.1-.16a2.5,2.5,0,0,1-.05-.4c0-.17,0-.42,0-.73s0-.58,0-.76a2.66,2.66,0,0,1,.05-.42.33.33,0,0,1,.1-.17.33.33,0,0,1,.15,0Zm3.15,5.39h-4V26h4Zm-1,2.31h-2V28.29h2Z"/>
      <path class="cls-2" d="M104.42,22.32a.15.15,0,0,0,.07.14.2.2,0,0,0,.15.06h.55a.32.32,0,0,1,.14,0,.33.33,0,0,1,.09.17,1.44,1.44,0,0,1,.06.39c0,.17,0,.42,0,.72s0,.59,0,.77a1.72,1.72,0,0,1-.06.42.26.26,0,0,1-.09.17.32.32,0,0,1-.14,0h-.58a1.14,1.14,0,0,1-.28,0,3.74,3.74,0,0,1-.42,1.23,3.45,3.45,0,0,1-.79,1,3.62,3.62,0,0,1-1.13.66,4,4,0,0,1-1.42.24h-.7A4.16,4.16,0,0,1,98.32,28a3.16,3.16,0,0,1-1.16-.76,3.25,3.25,0,0,1-.72-1.21,4.77,4.77,0,0,1-.26-1.61V21.52h2.54v3a1,1,0,0,0,.31.81,1.41,1.41,0,0,0,1,.28h.46a1.55,1.55,0,0,0,1.08-.3,1.07,1.07,0,0,0,.32-.79V20.21h2.54Zm-3.31-1.64H98.56V18.77h2.55Z"/>
      <path class="cls-2" d="M109.11,22.52a.24.24,0,0,0,.24-.22V20.21h2.54v2.31a3.19,3.19,0,0,1-.19,1.17,2.12,2.12,0,0,1-.53.84,2.3,2.3,0,0,1-.81.52,3,3,0,0,1-1,.17h-4.16a.33.33,0,0,1-.15,0s-.07-.07-.1-.16a2.5,2.5,0,0,1,0-.4c0-.17,0-.42,0-.73s0-.58,0-.76a2.66,2.66,0,0,1,0-.42.33.33,0,0,1,.1-.17.33.33,0,0,1,.15,0Zm.85,5.39h-4V26h4Z"/>
      <path class="cls-2" d="M115.43,24.6a4.1,4.1,0,0,1-.26,1.49,4,4,0,0,1-.74,1.22,3.67,3.67,0,0,1-1.14.84,3.59,3.59,0,0,1-1.48.3h-.7l-.22-2.68h.61a1.52,1.52,0,0,0,1.07-.31,1,1,0,0,0,.32-.77V20.21h2.54Z"/>
      <path class="cls-2" d="M119.68,24.6a4.1,4.1,0,0,1-.27,1.49,3.76,3.76,0,0,1-.74,1.22,3.67,3.67,0,0,1-1.14.84,3.59,3.59,0,0,1-1.48.3h-.7l-.22-2.68h.61a1.52,1.52,0,0,0,1.07-.31,1,1,0,0,0,.32-.77V20.21h2.55Zm0-5.16h-2.55V17.52h2.55Z"/>
      <path class="cls-2" d="M125.36,22.36a.5.5,0,0,0,0-.14l-.12-.32-1.15-3,2.38-1.08,1.71,4.47a.31.31,0,0,0,.3.22h.45a.33.33,0,0,1,.15,0,.33.33,0,0,1,.1.17,2.2,2.2,0,0,1,0,.39c0,.17,0,.42,0,.72s0,.59,0,.77a2.66,2.66,0,0,1,0,.42c0,.1-.06.15-.1.17a.33.33,0,0,1-.15,0h-.68a4,4,0,0,1-.69-.08,1.46,1.46,0,0,1-.7-.38,2,2,0,0,1-.64.38,2.06,2.06,0,0,1-.52.08h-3.54l-.23-2.7h3.28C125.3,22.52,125.36,22.47,125.36,22.36Z"/>
      <path class="cls-2" d="M129.43,22.52a.24.24,0,0,0,.17-.06.21.21,0,0,0,.07-.16,3.11,3.11,0,0,1,.75-2.21,2.65,2.65,0,0,1,2.05-.81,2.57,2.57,0,0,1,2.06.8,3.14,3.14,0,0,1,.69,2.13,3.14,3.14,0,0,1-.76,2.21,2.74,2.74,0,0,1-2.09.8,3,3,0,0,1-.79-.11,1.83,1.83,0,0,1-.68-.35,1.56,1.56,0,0,1-.35.24,4.13,4.13,0,0,1-.42.14,3.8,3.8,0,0,1-.53.07h-.7a.4.4,0,0,1-.15,0s-.07-.07-.09-.16a1.71,1.71,0,0,1,0-.4c0-.17,0-.42,0-.73s0-.58,0-.76a1.83,1.83,0,0,1,0-.42.27.27,0,0,1,.09-.17.4.4,0,0,1,.15,0Zm2.55-.31c0,.2,0,.32.13.38a.58.58,0,0,0,.59,0c.08-.06.12-.18.12-.38s-.13-.46-.4-.46S132,21.9,132,22.21Z"/>
      <path class="cls-2" d="M136.45,17.44a1.12,1.12,0,0,0-.29,0,.54.54,0,0,0-.22.23l-.5,1-1.61-.86.53-1.14a3.5,3.5,0,0,1,.37-.65,1.43,1.43,0,0,1,.4-.41,1.29,1.29,0,0,1,.54-.2,4.26,4.26,0,0,1,.78-.06h2.92v2.09Zm-.38.77h2.55v7h-2.55Z"/>
      <path class="cls-2" d="M142.24,24.6a4.32,4.32,0,0,1-.26,1.49,4,4,0,0,1-.74,1.22,3.6,3.6,0,0,1-1.15.84,3.51,3.51,0,0,1-1.47.3h-1.54l-.24-2.68h1.47a1.54,1.54,0,0,0,1.07-.31,1,1,0,0,0,.32-.77V20.21h2.54Z"/>
      <path class="cls-2" d="M144.25,19.68l1.91-1.85,2.47,3a3.68,3.68,0,0,1,.69,1.13,3,3,0,0,1,.16.94,2.44,2.44,0,0,1-.16.9,2.11,2.11,0,0,1-.48.73,2.31,2.31,0,0,1-.82.5,3.43,3.43,0,0,1-1.17.18h-3.7l-.22-2.7h3.23c.15,0,.23-.06.23-.18a.58.58,0,0,0-.16-.33Z"/>
      <path class="cls-2" d="M155.68,24.6a4.32,4.32,0,0,1-.26,1.49,4,4,0,0,1-.74,1.22,3.6,3.6,0,0,1-1.15.84,3.51,3.51,0,0,1-1.47.3h-1.54l-.24-2.68h1.47a1.54,1.54,0,0,0,1.07-.31,1,1,0,0,0,.32-.77V20.21h2.54Zm0-5.16h-2.54V17.52h2.54Z"/>
      <path class="cls-2" d="M156.52,16.68h2.55v8.54h-2.55Z"/>
      <path class="cls-3" d="M169.46,22.36a.5.5,0,0,0,0-.14s-.06-.16-.13-.32l-1.14-3,2.38-1.08,1.7,4.47a.32.32,0,0,0,.31.22H173a.37.37,0,0,1,.15,0,.27.27,0,0,1,.09.17,1.54,1.54,0,0,1,0,.39c0,.17,0,.42,0,.72s0,.59,0,.77a1.83,1.83,0,0,1,0,.42c0,.1-.05.15-.09.17a.37.37,0,0,1-.15,0h-.69a4,4,0,0,1-.68-.08,1.42,1.42,0,0,1-.7-.38,1.67,1.67,0,0,1-1.16.46h-3.55l-.22-2.7h3.28C169.4,22.52,169.46,22.47,169.46,22.36Z"/>
      <path class="cls-3" d="M173.53,22.52a.25.25,0,0,0,.17-.06.21.21,0,0,0,.07-.16V20.21h2.55v1.62a7.36,7.36,0,0,1,1.8-2,3.34,3.34,0,0,1,1.89-.63,2.43,2.43,0,0,1,1.88.82,2.84,2.84,0,0,1,.54.93,3.67,3.67,0,0,1,0,2.3,2.68,2.68,0,0,1-.55,1,2.75,2.75,0,0,1-1,.69,3.27,3.27,0,0,1-1.38.27h-3.08a4.65,4.65,0,0,1-.86-.08,1.39,1.39,0,0,1-.69-.38,1.8,1.8,0,0,1-.68.38,3,3,0,0,1-.62.08H173a.33.33,0,0,1-.15,0s-.07-.07-.1-.16a2.78,2.78,0,0,1,0-.4c0-.17,0-.42,0-.73s0-.58,0-.76a3,3,0,0,1,0-.42.33.33,0,0,1,.1-.17.33.33,0,0,1,.15,0Zm6.18.08a.45.45,0,0,0,.35-.13.48.48,0,0,0,.11-.3.44.44,0,0,0-.12-.29.41.41,0,0,0-.32-.13.88.88,0,0,0-.49.22c-.2.15-.46.36-.77.63Z"/>
      <path class="cls-3" d="M186.17,24.6a4.32,4.32,0,0,1-.26,1.49,4,4,0,0,1-.74,1.22,3.6,3.6,0,0,1-1.15.84,3.51,3.51,0,0,1-1.47.3H181l-.24-2.68h1.47a1.54,1.54,0,0,0,1.07-.31,1,1,0,0,0,.32-.77V20.21h2.54Z"/>
      <path class="cls-3" d="M188.18,19.68l1.91-1.85,2.47,3a3.68,3.68,0,0,1,.69,1.13,3,3,0,0,1,.16.94,2.44,2.44,0,0,1-.16.9,2.11,2.11,0,0,1-.48.73,2.31,2.31,0,0,1-.82.5,3.43,3.43,0,0,1-1.17.18h-3.7l-.22-2.7h3.23c.15,0,.23-.06.23-.18a.58.58,0,0,0-.16-.33Z"/>
      <path class="cls-3" d="M199,22.6h-.17a.32.32,0,0,1-.14,0V26h-2.54V22.6c0-.44,0-.84,0-1.21s-.07-.72-.13-1.07-.14-.69-.23-1-.18-.7-.3-1.08l2.47-.84.54,2.31c0,.17.12.26.24.26s.21-.09.21-.26,0-.22-.06-.53-.12-.74-.23-1.32l2.53-.46c.12.61.2,1.14.25,1.56s.06.78.06,1.05a3.13,3.13,0,0,1-.17,1,2.4,2.4,0,0,1-.48.84,2.34,2.34,0,0,1-.78.55A2.46,2.46,0,0,1,199,22.6Z"/>
      <path class="cls-3" d="M205.12,19.22a2.55,2.55,0,0,1,1.07.23,3.32,3.32,0,0,1,.93.63,3.16,3.16,0,0,1,.67.91,2.4,2.4,0,0,1,.25,1.07,2.37,2.37,0,0,1-.25,1.07,3.3,3.3,0,0,1-.67.91,3.35,3.35,0,0,1-.93.64,2.65,2.65,0,0,1-2.16,0,3.55,3.55,0,0,1-.94-.64,3.47,3.47,0,0,1-.66-.91,2.49,2.49,0,0,1-.24-1.07,2.53,2.53,0,0,1,.24-1.07,3.32,3.32,0,0,1,.66-.91,3.52,3.52,0,0,1,.94-.63A2.57,2.57,0,0,1,205.12,19.22Zm0,3.3a.43.43,0,0,0,.31-.14.46.46,0,0,0,0-.64.46.46,0,0,0-.64,0,.44.44,0,0,0,0,.64A.42.42,0,0,0,205.12,22.52Z"/>
      <path class="cls-2" d="M218.86,24.6a4.32,4.32,0,0,1-.26,1.49,3.79,3.79,0,0,1-.75,1.22,3.45,3.45,0,0,1-1.14.84,3.51,3.51,0,0,1-1.47.3H213.7l-.24-2.68h1.47a1.54,1.54,0,0,0,1.07-.31,1,1,0,0,0,.31-.77V20.21h2.55Z"/>
      <path class="cls-2" d="M220.86,19.68l1.92-1.85,2.47,3a3.68,3.68,0,0,1,.69,1.13,3,3,0,0,1,.16.94,2.44,2.44,0,0,1-.16.9,2.11,2.11,0,0,1-.48.73,2.31,2.31,0,0,1-.82.5,3.43,3.43,0,0,1-1.17.18h-3.7l-.22-2.7h3.23c.15,0,.23-.06.23-.18a.65.65,0,0,0-.16-.33Z"/>
      <path class="cls-2" d="M235.8,24.91a4.76,4.76,0,0,1-.26,1.63,3.32,3.32,0,0,1-.73,1.19,3.41,3.41,0,0,1-1.13.72,4.07,4.07,0,0,1-1.42.24h-2.09L230,26h2.39a.92.92,0,0,0,.65-.18.78.78,0,0,0,.19-.59H233a4.14,4.14,0,0,1-1.43-.2,1.88,1.88,0,0,1-1.31-1.42,5.14,5.14,0,0,1-.12-1.15,3.64,3.64,0,0,1,.18-1.15,3.22,3.22,0,0,1,.54-1,2.79,2.79,0,0,1,.88-.66,2.75,2.75,0,0,1,1.17-.24,3.33,3.33,0,0,1,1.1.17,2.35,2.35,0,0,1,.91.54,2.49,2.49,0,0,1,.62,1,4,4,0,0,1,.23,1.42Zm-3.23-2.63a.67.67,0,0,0,.08.35c.06.09.18.13.38.13h.38v-.4c0-.35-.15-.53-.44-.53S232.57,22,232.57,22.28Z"/>
      <path class="cls-2" d="M241.48,22.36a.42.42,0,0,0,0-.14s-.06-.16-.13-.32l-1.15-3,2.38-1.08,1.71,4.47a.32.32,0,0,0,.31.22H245a.32.32,0,0,1,.14,0,.24.24,0,0,1,.1.17,1.54,1.54,0,0,1,0,.39c0,.17,0,.42,0,.72s0,.59,0,.77a1.83,1.83,0,0,1,0,.42c0,.1-.05.15-.1.17a.32.32,0,0,1-.14,0h-.69a4.06,4.06,0,0,1-.69-.08,1.39,1.39,0,0,1-.69-.38,1.67,1.67,0,0,1-1.17.46h-3.54l-.22-2.7h3.27C241.42,22.52,241.48,22.47,241.48,22.36Z"/>
      <path class="cls-2" d="M245.88,22.52a.2.2,0,0,0,.15-.06.21.21,0,0,0,.07-.16V20.21h2.54v2.31a3.19,3.19,0,0,1-.19,1.17,2.35,2.35,0,0,1-.52.84,2.3,2.3,0,0,1-.81.52,3,3,0,0,1-1,.17H245a.33.33,0,0,1-.15,0s-.07-.07-.1-.16a2.5,2.5,0,0,1-.05-.4c0-.17,0-.42,0-.73s0-.58,0-.76a2.66,2.66,0,0,1,.05-.42.33.33,0,0,1,.1-.17.33.33,0,0,1,.15,0ZM249,27.91h-4V26h4Z"/>
      <path class="cls-2" d="M256,22.52a.26.26,0,0,1,.14,0,.33.33,0,0,1,.1.17,2.46,2.46,0,0,1,0,.39c0,.17,0,.42,0,.72s0,.59,0,.77a3,3,0,0,1,0,.42c0,.1-.06.15-.1.17a.26.26,0,0,1-.14,0h-.79a4.48,4.48,0,0,1-.32,1.5,3.22,3.22,0,0,1-.73,1.08,3,3,0,0,1-1.1.67,4,4,0,0,1-1.37.22h-2.08l-.16-2.7h2.4a1,1,0,0,0,.65-.18.82.82,0,0,0,.19-.59h-.23a4.17,4.17,0,0,1-1.43-.2,2,2,0,0,1-.87-.55,2,2,0,0,1-.43-.87,5.14,5.14,0,0,1-.12-1.15,3.64,3.64,0,0,1,.18-1.15,2.7,2.7,0,0,1,1.41-1.62,2.8,2.8,0,0,1,1.18-.24,3.28,3.28,0,0,1,1.09.17,2.28,2.28,0,0,1,.91.54,2.49,2.49,0,0,1,.62,1,3.74,3.74,0,0,1,.23,1.42Zm-4-.24a.67.67,0,0,0,.08.35c.06.09.19.13.38.13h.38v-.4c0-.35-.14-.53-.43-.53S252,22,252,22.28Z"/>
      <path class="cls-2" d="M256.58,22.52a.23.23,0,0,0,.16-.06.21.21,0,0,0,.07-.16V20.21h2.47V22.3a.21.21,0,0,0,.07.16.24.24,0,0,0,.17.06.24.24,0,0,0,.15-.06.21.21,0,0,0,.07-.16V20.21h2.46V22.3a.26.26,0,0,0,.07.16.27.27,0,0,0,.17.06.25.25,0,0,0,.16-.06.26.26,0,0,0,.07-.16V20.21h2.46v2.31a2.89,2.89,0,0,1-.22,1.2,2.28,2.28,0,0,1-.61.84,2.4,2.4,0,0,1-.86.5,3,3,0,0,1-1,.16,4.05,4.05,0,0,1-.7-.08,1.31,1.31,0,0,1-.68-.38,2.15,2.15,0,0,1-.68.38,2.31,2.31,0,0,1-.49.08h-.37a4,4,0,0,1-.7-.08,1.42,1.42,0,0,1-.7-.38,1.89,1.89,0,0,1-.66.38,2.52,2.52,0,0,1-.49.08H256a.32.32,0,0,1-.14,0c-.05,0-.08-.07-.1-.16a2.5,2.5,0,0,1-.05-.4c0-.17,0-.42,0-.73s0-.58,0-.76a2.66,2.66,0,0,1,.05-.42.24.24,0,0,1,.1-.17.32.32,0,0,1,.14,0Zm6.24-3.08h-4V17.52h4Zm-1-2.31h-2V15.21h2Z"/>
      <path class="cls-2" d="M270.81,22.52a.33.33,0,0,1,.15,0,.27.27,0,0,1,.1.17,2.2,2.2,0,0,1,.05.39c0,.17,0,.42,0,.72s0,.59,0,.77a2.66,2.66,0,0,1-.05.42.23.23,0,0,1-.1.17.33.33,0,0,1-.15,0h-.68A3,3,0,0,1,268.9,25a2,2,0,0,1-.8-.58,2.15,2.15,0,0,1-.45-.86,4,4,0,0,1-.14-1V16.68h2.55V22.3a.2.2,0,0,0,.22.22Z"/>
      <path class="cls-2" d="M271.35,22.52a.23.23,0,0,0,.16-.06.21.21,0,0,0,.07-.16,3.11,3.11,0,0,1,.75-2.21,2.67,2.67,0,0,1,2.06-.81,2.55,2.55,0,0,1,2.05.8,3.14,3.14,0,0,1,.69,2.13,3.09,3.09,0,0,1-.76,2.21,2.73,2.73,0,0,1-2.08.8,3.09,3.09,0,0,1-.8-.11,1.78,1.78,0,0,1-.67-.35,1.61,1.61,0,0,1-.36.24l-.42.14a3.6,3.6,0,0,1-.53.07h-.7a.32.32,0,0,1-.14,0,.22.22,0,0,1-.1-.16,2.5,2.5,0,0,1-.05-.4c0-.17,0-.42,0-.73s0-.58,0-.76a2.66,2.66,0,0,1,.05-.42.27.27,0,0,1,.1-.17.32.32,0,0,1,.14,0Zm2.54-.31a.45.45,0,0,0,.13.38.59.59,0,0,0,.31.08.57.57,0,0,0,.28-.08c.08-.06.12-.18.12-.38s-.13-.46-.4-.46S273.89,21.9,273.89,22.21Z"/>
      <path class="cls-2" d="M290.54,22.3a.2.2,0,0,0,.22.22.24.24,0,0,0,.17-.06.21.21,0,0,0,.07-.16V20.21h2.45v2.31a2.89,2.89,0,0,1-.22,1.2,2.38,2.38,0,0,1-.6.84,2.44,2.44,0,0,1-.87.5,3,3,0,0,1-1,.16,4,4,0,0,1-.68-.08,1.42,1.42,0,0,1-.7-.38,2,2,0,0,1-.67.38,2.31,2.31,0,0,1-.49.08,2.67,2.67,0,0,1-.56-.06,1.19,1.19,0,0,1-.44-.16l.38-.63a4.45,4.45,0,0,1-.25,1.52,3.78,3.78,0,0,1-.74,1.26,3.26,3.26,0,0,1-1.18.84,3.87,3.87,0,0,1-1.6.31h-.7a4.15,4.15,0,0,1-1.54-.27,3.08,3.08,0,0,1-1.16-.76,3.27,3.27,0,0,1-.73-1.21,5,5,0,0,1-.25-1.61V21.52H282v3a1,1,0,0,0,.3.81,1.46,1.46,0,0,0,1,.28h.46a1.58,1.58,0,0,0,1.08-.3,1.07,1.07,0,0,0,.32-.79V20.21h2.45V22.3a.21.21,0,0,0,.07.16.25.25,0,0,0,.17.06.2.2,0,0,0,.22-.22V20.21h2.48Zm.69-2.86h-4V17.52h4Zm-1-2.31h-2V15.21h2Z"/>
      <path class="cls-2" d="M300.09,24.91a4.76,4.76,0,0,1-.26,1.63,3.21,3.21,0,0,1-.74,1.19,3.27,3.27,0,0,1-1.12.72,4.11,4.11,0,0,1-1.42.24h-2.09l-.15-2.7h2.39a.94.94,0,0,0,.65-.18.78.78,0,0,0,.19-.59h-.22a4.14,4.14,0,0,1-1.43-.2,1.84,1.84,0,0,1-1.31-1.42,5.14,5.14,0,0,1-.12-1.15,3.64,3.64,0,0,1,.18-1.15,2.84,2.84,0,0,1,.54-1,2.79,2.79,0,0,1,.88-.66,2.72,2.72,0,0,1,1.17-.24,3.28,3.28,0,0,1,1.09.17,2.28,2.28,0,0,1,.91.54,2.51,2.51,0,0,1,.63,1,4,4,0,0,1,.23,1.42Zm-3.24-2.63a.58.58,0,0,0,.09.35c.05.09.18.13.38.13h.37v-.4c0-.35-.14-.53-.43-.53S296.85,22,296.85,22.28Z"/>
      <path class="cls-2" d="M300.4,25.77a1.54,1.54,0,0,0,1.07-.31,1,1,0,0,0,.31-.77V20.21h2.55v2.11c0,.13.07.2.22.2h.54a.32.32,0,0,1,.14,0,.24.24,0,0,1,.1.17,2.2,2.2,0,0,1,.05.39c0,.17,0,.42,0,.72s0,.59,0,.77a2.66,2.66,0,0,1-.05.42c0,.1-.05.15-.1.17a.32.32,0,0,1-.14,0h-.23a3.49,3.49,0,0,1-.59,0,3.94,3.94,0,0,1-.37,1.28,3.55,3.55,0,0,1-1.84,1.74,3.63,3.63,0,0,1-1.37.25H300l-.22-2.68Z"/>
      <path class="cls-2" d="M306,22.52a2.09,2.09,0,0,1-.12-.46,3.42,3.42,0,0,1,0-.45,2.75,2.75,0,0,1,.18-.95,2.48,2.48,0,0,1,.53-.86,2.78,2.78,0,0,1,.88-.64,2.92,2.92,0,0,1,1.26-.25,3.7,3.7,0,0,1,1.12.16,2.21,2.21,0,0,1,.88.54,2.54,2.54,0,0,1,.57.95,4.27,4.27,0,0,1,.21,1.43v.53a2.92,2.92,0,0,1-.19,1.08,2.23,2.23,0,0,1-.58.85,2.85,2.85,0,0,1-1,.57,4.57,4.57,0,0,1-1.41.2h-3.23a.33.33,0,0,1-.15,0,.22.22,0,0,1-.1-.16,2.5,2.5,0,0,1,0-.4c0-.17,0-.42,0-.73s0-.58,0-.76a2.66,2.66,0,0,1,0-.42.27.27,0,0,1,.1-.17.33.33,0,0,1,.15,0Zm3.93-4.38h-2.55V16.22h2.55ZM309,22.6a.58.58,0,0,0,.07-.28c0-.11,0-.22,0-.33a1,1,0,0,0-.09-.43.37.37,0,0,0-.37-.19.38.38,0,0,0-.28.11.36.36,0,0,0-.1.27.86.86,0,0,0,.12.39A1.35,1.35,0,0,0,309,22.6Z"/>
      <path class="cls-2" d="M317.69,24.6a4.1,4.1,0,0,1-.27,1.49,3.76,3.76,0,0,1-.74,1.22,3.67,3.67,0,0,1-1.14.84,3.59,3.59,0,0,1-1.48.3h-1.54l-.24-2.68h1.47a1.52,1.52,0,0,0,1.07-.31,1,1,0,0,0,.32-.77V20.21h2.55Z"/>
      <path class="cls-2" d="M321.83,22.52a.37.37,0,0,1,.15,0,.27.27,0,0,1,.09.17,1.54,1.54,0,0,1,.05.39c0,.17,0,.42,0,.72s0,.59,0,.77a1.83,1.83,0,0,1-.05.42c0,.1-.05.15-.09.17a.37.37,0,0,1-.15,0h-.69a3,3,0,0,1-1.22-.22,2.11,2.11,0,0,1-.81-.58,2.43,2.43,0,0,1-.45-.86,4,4,0,0,1-.14-1V16.68h2.55V22.3a.2.2,0,0,0,.23.22Z"/>
      <path class="cls-2" d="M324.6,22.52q.24,0,.24-.18a.46.46,0,0,0-.15-.28l-2.55-2.54V17.68l5.47-2,.62,2.54-2.7,1,1.07,1.07c.51.51.92.91,1.26,1.2a8.07,8.07,0,0,0,.84.67,2.14,2.14,0,0,0,.58.3,2,2,0,0,0,.47.06H330a.29.29,0,0,1,.14,0,.33.33,0,0,1,.1.17,1.44,1.44,0,0,1,.06.39c0,.17,0,.42,0,.72s0,.59,0,.77a1.72,1.72,0,0,1-.06.42c0,.1-.06.15-.1.17a.29.29,0,0,1-.14,0h-.24l-.84,0a3.06,3.06,0,0,1-.65-.1,1.94,1.94,0,0,1-.53-.23,3,3,0,0,1-.51-.42,2.08,2.08,0,0,1-.87.59,3.35,3.35,0,0,1-1.13.18h-3.39a.33.33,0,0,1-.15,0s-.07-.07-.1-.16a2.78,2.78,0,0,1,0-.4c0-.17,0-.42,0-.73s0-.58,0-.76a3,3,0,0,1,0-.42.33.33,0,0,1,.1-.17.33.33,0,0,1,.15,0Z"/>
      <path class="cls-2" d="M330.76,22.3a3.11,3.11,0,0,1,.75-2.21,2.65,2.65,0,0,1,2.05-.81,2.59,2.59,0,0,1,2.06.8,3.14,3.14,0,0,1,.69,2.13v.09a.25.25,0,0,0,.06.16.27.27,0,0,0,.17.06h.53a.26.26,0,0,1,.14,0,.33.33,0,0,1,.1.17,1.44,1.44,0,0,1,.06.39c0,.17,0,.42,0,.72s0,.59,0,.77a1.72,1.72,0,0,1-.06.42c0,.1-.06.15-.1.17a.26.26,0,0,1-.14,0,6.08,6.08,0,0,1-1.06-.08,2.19,2.19,0,0,1-.91-.35,3,3,0,0,1-1.64.43,3.15,3.15,0,0,1-.8-.11,1.86,1.86,0,0,1-.67-.35,1.56,1.56,0,0,1-.35.24l-.42.14a3.8,3.8,0,0,1-.53.07H330a.37.37,0,0,1-.15,0s-.07-.07-.09-.16a1.71,1.71,0,0,1-.05-.4c0-.17,0-.42,0-.73s0-.58,0-.76a1.83,1.83,0,0,1,.05-.42.27.27,0,0,1,.09-.17.37.37,0,0,1,.15,0h.53a.25.25,0,0,0,.17-.06A.21.21,0,0,0,330.76,22.3Zm2.31-.09c0,.2,0,.32.13.38a.56.56,0,0,0,.3.08.51.51,0,0,0,.28-.08c.09-.06.13-.18.13-.38s-.14-.46-.41-.46S333.07,21.9,333.07,22.21Z"/>
      <path class="cls-2" d="M337.93,22.52a2,2,0,0,1-.09-.69,2.24,2.24,0,0,1,.22-1,2.64,2.64,0,0,1,.58-.84,3,3,0,0,1,.92-.59,3.11,3.11,0,0,1,1.21-.22,2.26,2.26,0,0,1,.67.09l1.42-1.4,2.8,3a3,3,0,0,1,.64,1,2.8,2.8,0,0,1,.17.91,2.56,2.56,0,0,1-.18,1,2.23,2.23,0,0,1-.54.79,2.39,2.39,0,0,1-.84.52,3.08,3.08,0,0,1-1.13.19h-1.69l-.88,0a3.1,3.1,0,0,1-.75-.13,5,5,0,0,1-1,.13l-.87,0h-1.54a.32.32,0,0,1-.14,0,.22.22,0,0,1-.1-.16,2.5,2.5,0,0,1-.05-.4c0-.17,0-.42,0-.73s0-.58,0-.76a2.66,2.66,0,0,1,.05-.42.27.27,0,0,1,.1-.17.32.32,0,0,1,.14,0Zm2.57.08a.93.93,0,0,0,.31-.28.73.73,0,0,0,.11-.42.43.43,0,0,0-.11-.3.35.35,0,0,0-.31-.15.34.34,0,0,0-.3.15.44.44,0,0,0-.12.3.74.74,0,0,0,.12.42A1,1,0,0,0,340.5,22.6Zm3.35-.28a.19.19,0,0,0,0-.1.76.76,0,0,0-.1-.14,2,2,0,0,0-.21-.21l-.35-.35v.09a2.64,2.64,0,0,1,0,.51c0,.15-.07.29-.11.4h.53a.47.47,0,0,0,.25-.05A.18.18,0,0,0,343.85,22.32Z"/>
    </g>
  </g>
</svg>
